<?xml version="1.0" encoding="UTF-8"?><svg id="Layer_1" xmlns="http://www.w3.org/2000/svg" viewBox="0 0 100 100"><defs><style>.cls-1{fill:#fff;}</style></defs><g id="Brand_Logos"><path id="Tracé_3" class="cls-1" d="M77.07,38.77c-.05-2.26-.47-4.49-1.27-6.6-.69-1.82-1.76-3.46-3.14-4.83-1.36-1.39-3.01-2.46-4.82-3.14-2.12-.79-4.35-1.22-6.61-1.27-2.9-.14-3.83-.17-11.23-.17s-8.33,.03-11.23,.16c-2.26,.05-4.49,.47-6.6,1.27-1.82,.68-3.46,1.76-4.83,3.14-1.39,1.36-2.46,3.01-3.15,4.83-.79,2.12-1.22,4.35-1.27,6.61-.13,2.9-.16,3.83-.16,11.22s.03,8.33,.16,11.23c.04,2.26,.47,4.49,1.27,6.61,.68,1.82,1.76,3.47,3.14,4.83,1.36,1.39,3.01,2.46,4.83,3.14,2.12,.79,4.35,1.22,6.61,1.27,2.91,.13,3.83,.16,11.23,.16s8.33-.03,11.23-.16c2.26-.04,4.49-.47,6.61-1.27,3.66-1.41,6.55-4.31,7.97-7.97,.79-2.12,1.22-4.35,1.27-6.61,.13-2.91,.16-3.83,.16-11.23s-.04-8.33-.17-11.23Zm-4.9,22.24c-.02,1.73-.34,3.44-.94,5.06-.92,2.38-2.8,4.25-5.17,5.17-1.62,.6-3.33,.92-5.06,.94-2.87,.13-3.73,.15-11.01,.15s-8.13-.03-11.01-.15c-1.73-.02-3.44-.34-5.06-.94-1.18-.44-2.25-1.13-3.13-2.04-.9-.88-1.6-1.95-2.03-3.13-.6-1.62-.92-3.33-.94-5.06-.13-2.87-.15-3.73-.15-11.01s.03-8.13,.15-11.01c.02-1.73,.34-3.44,.94-5.06,.44-1.18,1.13-2.25,2.03-3.13,.88-.91,1.95-1.6,3.13-2.04,1.62-.6,3.33-.92,5.06-.94,2.87-.13,3.73-.15,11.01-.15s8.13,.03,11.01,.15c1.73,.02,3.44,.34,5.06,.94,2.38,.92,4.26,2.79,5.17,5.17,.6,1.62,.92,3.33,.94,5.06,.13,2.87,.15,3.73,.15,11.01s-.03,8.13-.15,11.01h0Z"/></g><path id="Brand_Logos-2" class="cls-1" d="M52.18,63.59v-12.49h4.19l.62-4.86h-4.81v-3.11c0-1.41,.39-2.37,2.41-2.37h2.58v-4.35c-1.25-.13-2.5-.2-3.75-.19-3.23-.24-6.04,2.18-6.27,5.41-.03,.34-.02,.68,.01,1.02v3.59h-4.2v4.87h4.2v12.49h5.03Z"/></svg>