<?xml version="1.0" encoding="utf-8"?>
<!-- Generator: Adobe Illustrator 26.3.1, SVG Export Plug-In . SVG Version: 6.00 Build 0)  -->
<svg version="1.1" id="Layer_1" xmlns="http://www.w3.org/2000/svg" xmlns:xlink="http://www.w3.org/1999/xlink" x="0px" y="0px"
	 viewBox="0 0 100 100" style="enable-background:new 0 0 100 100;" xml:space="preserve">
<style type="text/css">
	.st0{fill:#FFFFFF;}
</style>
<g id="Groupe_13" transform="translate(-855 -7477.914)">
	<g id="Brand_Logos" transform="translate(855 7477.914)">
		<path id="Tracé_2" class="st0" d="M50,36c-7.7,0-14,6.3-14,14s6.3,14,14,14s14-6.3,14-14l0,0C64,42.3,57.7,36,50,36z M50,59.1
			c-5,0-9.1-4.1-9.1-9.1s4.1-9.1,9.1-9.1s9.1,4.1,9.1,9.1l0,0C59.1,55,55,59.1,50,59.1z"/>
		<path id="Tracé_3" class="st0" d="M77.1,38.8c-0.1-2.3-0.5-4.5-1.3-6.6c-0.7-1.8-1.8-3.5-3.1-4.8c-1.4-1.4-3-2.5-4.8-3.1
			c-2.1-0.8-4.3-1.2-6.6-1.3c-2.9-0.1-3.8-0.2-11.2-0.2s-8.3,0-11.2,0.2c-2.3,0-4.5,0.5-6.6,1.3c-1.8,0.7-3.5,1.8-4.8,3.1
			c-1.4,1.4-2.5,3-3.1,4.8c-0.8,2.1-1.2,4.3-1.3,6.6c-0.1,2.9-0.2,3.8-0.2,11.2s0,8.3,0.2,11.2c0,2.3,0.5,4.5,1.3,6.6
			c0.7,1.8,1.8,3.5,3.1,4.8c1.4,1.4,3,2.5,4.8,3.1c2.1,0.8,4.3,1.2,6.6,1.3c2.9,0.1,3.8,0.2,11.2,0.2s8.3,0,11.2-0.2
			c2.3,0,4.5-0.5,6.6-1.3c3.7-1.4,6.6-4.3,8-8c0.8-2.1,1.2-4.3,1.3-6.6c0.1-2.9,0.2-3.8,0.2-11.2S77.2,41.7,77.1,38.8L77.1,38.8z
			 M72.2,61c0,1.7-0.3,3.4-0.9,5.1c-0.9,2.4-2.8,4.2-5.2,5.2c-1.6,0.6-3.3,0.9-5.1,0.9c-2.9,0.1-3.7,0.2-11,0.2s-8.1,0-11-0.2
			c-1.7,0-3.4-0.3-5.1-0.9c-1.2-0.4-2.2-1.1-3.1-2c-0.9-0.9-1.6-1.9-2-3.1c-0.6-1.6-0.9-3.3-0.9-5.1c-0.1-2.9-0.1-3.7-0.1-11
			s0-8.1,0.1-11c0-1.7,0.3-3.4,0.9-5.1c0.4-1.2,1.1-2.2,2-3.1c0.9-0.9,2-1.6,3.1-2c1.6-0.6,3.3-0.9,5.1-0.9c2.9-0.1,3.7-0.1,11-0.1
			s8.1,0,11,0.1c1.7,0,3.4,0.3,5.1,0.9c2.4,0.9,4.3,2.8,5.2,5.2c0.6,1.6,0.9,3.3,0.9,5.1c0.1,2.9,0.2,3.7,0.2,11S72.3,58.1,72.2,61
			C72.2,61,72.2,61,72.2,61z"/>
	</g>
</g>
<circle id="Ellipse_1" class="st0" cx="64.1" cy="34.3" r="2.4"/>
</svg>
