<?xml version="1.0" encoding="UTF-8"?><svg id="Layer_1" xmlns="http://www.w3.org/2000/svg" viewBox="0 0 100 100"><defs><style>.cls-1{fill:#fff;}</style></defs><path id="whatsapp-brands" class="cls-1" d="M60.24,39.63c-5.52-5.52-14.47-5.52-19.99,0-4.52,4.52-5.44,11.52-2.25,17.06l-2,7.32,7.49-1.97c2.07,1.13,4.39,1.72,6.75,1.72h0c7.76,.12,14.14-6.06,14.27-13.82,.06-3.88-1.48-7.61-4.27-10.31h0Zm-10,21.75c-2.11,0-4.17-.56-5.99-1.64l-.43-.25-4.44,1.17,1.18-4.34-.28-.45c-3.37-5.56-1.6-12.8,3.96-16.17,5.56-3.37,12.8-1.6,16.17,3.96,1.09,1.8,1.68,3.86,1.71,5.97-.07,6.51-5.37,11.76-11.88,11.75Zm6.44-8.8c-.35-.18-2.09-1.03-2.41-1.15s-.56-.18-.8,.18-.91,1.15-1.12,1.39-.41,.27-.77,.09c-2.03-.81-3.73-2.3-4.81-4.2-.36-.62,.36-.58,1.04-1.93,.09-.2,.08-.43-.03-.62-.09-.18-.8-1.92-1.09-2.62s-.58-.59-.8-.6-.44-.01-.68-.01c-.36,.01-.7,.17-.94,.44-.81,.77-1.25,1.84-1.23,2.95,.12,1.33,.62,2.6,1.44,3.65,1.52,2.27,3.6,4.11,6.04,5.33,1.28,.74,2.77,1.05,4.24,.88,.99-.2,1.86-.81,2.38-1.68,.23-.53,.3-1.11,.2-1.68-.08-.16-.31-.25-.66-.42Z"/><g id="Brand_Logos"><path id="Tracé_3" class="cls-1" d="M77.07,38.77c-.05-2.26-.47-4.49-1.27-6.6-.69-1.82-1.76-3.46-3.14-4.83-1.36-1.39-3.01-2.46-4.82-3.14-2.12-.79-4.35-1.22-6.61-1.27-2.9-.14-3.83-.17-11.23-.17s-8.33,.03-11.23,.16c-2.26,.05-4.49,.47-6.6,1.27-1.82,.68-3.46,1.76-4.83,3.14-1.39,1.36-2.46,3.01-3.15,4.83-.79,2.12-1.22,4.35-1.27,6.61-.13,2.9-.16,3.83-.16,11.22s.03,8.33,.16,11.23c.04,2.26,.47,4.49,1.27,6.61,.68,1.82,1.76,3.47,3.14,4.83,1.36,1.39,3.01,2.46,4.83,3.14,2.12,.79,4.35,1.22,6.61,1.27,2.91,.13,3.83,.16,11.23,.16s8.33-.03,11.23-.16c2.26-.04,4.49-.47,6.61-1.27,3.66-1.41,6.55-4.31,7.97-7.97,.79-2.12,1.22-4.35,1.27-6.61,.13-2.91,.16-3.83,.16-11.23s-.04-8.33-.17-11.23Zm-4.9,22.24c-.02,1.73-.34,3.44-.94,5.06-.92,2.38-2.8,4.25-5.17,5.17-1.62,.6-3.33,.92-5.06,.94-2.87,.13-3.73,.15-11.01,.15s-8.13-.03-11.01-.15c-1.73-.02-3.44-.34-5.06-.94-1.18-.44-2.25-1.13-3.13-2.04-.9-.88-1.6-1.95-2.03-3.13-.6-1.62-.92-3.33-.94-5.06-.13-2.87-.15-3.73-.15-11.01s.03-8.13,.15-11.01c.02-1.73,.34-3.44,.94-5.06,.44-1.18,1.13-2.25,2.03-3.13,.88-.91,1.95-1.6,3.13-2.04,1.62-.6,3.33-.92,5.06-.94,2.87-.13,3.73-.15,11.01-.15s8.13,.03,11.01,.15c1.73,.02,3.44,.34,5.06,.94,2.38,.92,4.26,2.79,5.17,5.17,.6,1.62,.92,3.33,.94,5.06,.13,2.87,.15,3.73,.15,11.01s-.03,8.13-.15,11.01h0Z"/></g></svg>